#!OML:ASF E:\Steps\Project 1\Capture day 1\Session 2\Subject.ASF
:FULLY-SPECIFIED
:DEGREES
181
root 16.323 18.9117 19.7581 -159.409 -7.80933 170.092
lowerback -19.6597 -1.83038 -3.18722
upperback 1.20268 -1.72225 -0.34977
thorax 12.5248 -1.03427 0.901006
lowerneck -2.21357 5.3342 1.22674
upperneck 13.9809 6.89866 -2.17766
head 4.6749 3.11817 -0.559331
rclavicle -2.127e-014 -5.56597e-015
rhumerus -36.3388 -15.439 -72.1437
rradius 40.859
rwrist -3.58896
rhand -6.04754 -52.0973
rfingers 7.12502
rthumb 19.7867 -81.1102
lclavicle -2.127e-014 -5.56597e-015
lhumerus -30.9847 1.10703 78.4416
lradius 29.9093
lwrist -3.35071
lhand -20.3041 -13.6131
lfingers 7.12502
lthumb 6.04626 16.2806
rfemur -28.0784 5.04677 13.4931
rtibia 42.8343
rfoot -39.3216 -13.9108
rtoes -29.6504
lfemur -51.3945 -1.76789 -11.4257
ltibia 44.0803
lfoot 2.45812 6.95736
ltoes -24.6365
182
root 16.2934 18.909 19.702 -159.988 -8.01 169.912
lowerback -19.3876 -1.93834 -3.19415
upperback 1.34537 -1.86864 -0.28713
thorax 12.541 -1.10241 0.935671
lowerneck -2.1264 5.17037 1.34605
upperneck 14.1696 6.68816 -2.47862
head 4.72852 2.99177 -0.681786
rclavicle -2.32578e-014 -2.38542e-014
rhumerus -36.35 -15.0123 -72.1754
rradius 41.3402
rwrist -4.008
rhand -7.56116 -50.5611
rfingers 7.12502
rthumb 18.3311 -79.7174
lclavicle -2.32578e-014 -2.38542e-014
lhumerus -30.8566 1.08918 78.2638
lradius 29.504
lwrist -3.22321
lhand -20.2175 -13.6076
lfingers 7.12502
lthumb 6.12983 16.2838
rfemur -26.9593 5.02401 13.373
rtibia 42.6834
rfoot -39.5719 -14.043
rtoes -29.3567
lfemur -50.7235 -1.9987 -10.7923
ltibia 42.7878
lfoot 3.26333 7.15002
ltoes -25.0811
183
root 16.2553 18.89 19.6573 -160.016 -7.81007 169.793
lowerback -19.5688 -1.87407 -3.01493
upperback 1.34012 -1.81851 -0.298646
thorax 12.6306 -1.0674 0.831224
lowerneck -2.0434 5.20743 1.26739
upperneck 14.1195 6.74952 -2.53715
head 4.69976 3.01543 -0.686799
rclavicle -1.15295e-014 -1.03368e-014
rhumerus -36.3816 -14.7064 -72.1705
rradius 41.8142
rwrist -4.38791
rhand -8.2968 -51.6592
rfingers 7.12502
rthumb 17.6232 -80.8805
lclavicle -1.15295e-014 -1.03368e-014
lhumerus -30.8048 1.29874 77.95
lradius 29.3317
lwrist -3.33023
lhand -20.0663 -13.9039
lfingers 7.12502
lthumb 6.27582 15.9831
rfemur -26.8366 5.00938 13.0927
rtibia 42.9602
rfoot -39.9065 -13.7524
rtoes -28.8602
lfemur -50.7392 -1.74205 -10.2095
ltibia 41.6261
lfoot 4.13055 7.52902
ltoes -26.5802
184
root 16.2136 18.8596 19.6274 -159.523 -7.29858 169.677
lowerback -20.0744 -1.71677 -2.68883
upperback 1.15177 -1.67509 -0.407109
thorax 12.6849 -0.978872 0.557732
lowerneck -1.93974 5.5245 0.954228
upperneck 13.4172 7.16316 -2.17439
head 4.95203 3.24795 -0.573431
rclavicle 2.0276e-014 -1.51076e-014
rhumerus -36.4371 -14.2208 -72.2586
rradius 42.4016
rwrist -4.50728
rhand -7.42459 -51.9063
rfingers 7.12502
rthumb 18.4624 -81.0502
lclavicle 2.0276e-014 -1.51076e-014
lhumerus -30.8327 1.43262 77.5421
lradius 29.2209
lwrist -3.44455
lhand -20.1105 -14.028
lfingers 7.12502
lthumb 6.23313 15.8603
rfemur -27.706 5.03118 12.6246
rtibia 43.6925
rfoot -40.292 -13.4544
rtoes -28.9976
lfemur -51.4364 -1.17612 -9.67307
ltibia 40.7749
lfoot 4.74395 8.10514
ltoes -26.5369
185
root 16.1763 18.8527 19.5472 -160.435 -7.48893 169.233
lowerback -19.7045 -1.94423 -3.0076
upperback 1.46327 -1.8988 -0.324192
thorax 12.8538 -1.10335 0.767963
lowerneck -1.91434 5.76301 0.563608
upperneck 13.3448 7.50293 -2.06749
head 4.90191 3.4045 -0.453865
rclavicle -3.12092e-014 -3.65764e-014
rhumerus -36.3186 -13.4417 -72.1623
rradius 42.8178
rwrist -4.74082
rhand -7.07758 -51.9137
rfingers 7.12502
rthumb 18.7962 -81.0256
lclavicle -3.12092e-014 -3.65764e-014
lhumerus -30.9022 1.92182 77.3626
lradius 29.0914
lwrist -3.59775
lhand -20.2347 -13.816
lfingers 7.12502
lthumb 6.11328 16.0758
rfemur -26.0054 5.05749 12.2289
rtibia 43.3512
rfoot -40.5661 -13.7153
rtoes -29.2726
lfemur -50.1584 -1.70871 -9.34306
ltibia 39.3334
lfoot 5.28837 8.5114
ltoes -26.4961
